<?xml version="1.0" encoding="iso-8859-1"?>
<!-- Generator: Adobe Illustrator 19.0.0, SVG Export Plug-In . SVG Version: 6.00 Build 0)  -->
<svg version="1.1" id="Capa_1" xmlns="http://www.w3.org/2000/svg" xmlns:xlink="http://www.w3.org/1999/xlink" x="0px" y="0px"
	 viewBox="0 0 496 496" style="enable-background:new 0 0 496 496;" xml:space="preserve">
<g>
	<path style="fill:#FFCB57;" d="M336,184h33.76c-30.36-43.488-80.696-72-137.76-72c-92.784,0-168,75.216-168,168h272V184z"/>
	<rect x="184" y="360" style="fill:#FFCB57;" width="80" height="96"/>
	<rect x="72" y="360" style="fill:#FFCB57;" width="80" height="96"/>
</g>
<g>
	<path style="fill:#E56565;" d="M472,24c0-13.232-10.768-24-24-24s-24,10.768-24,24c0,1.312,0.184,2.584,0.392,3.84L387,57.752
		l10,12.496l35.304-28.24c1.952,1.704,4.128,3.16,6.56,4.16l-6.752,40.52l15.784,2.624l7.08-42.464C464.792,43.84,472,34.792,472,24
		z M448,32c-4.416,0-8-3.584-8-8s3.584-8,8-8s8,3.584,8,8S452.416,32,448,32z"/>
	<rect x="416" y="352" style="fill:#E56565;" width="16" height="16"/>
	<rect x="368" y="352" style="fill:#E56565;" width="16" height="16"/>
	<rect x="320" y="352" style="fill:#E56565;" width="16" height="16"/>
</g>
<g>
	<path style="fill:#3F3A34;" d="M448,480h-32v-96h-80v96H48V352H32v144h432V352h-16V480z M352,400h48v80h-48V400z"/>
	<rect x="80" y="320" style="fill:#3F3A34;" width="16" height="16"/>
	<path style="fill:#3F3A34;" d="M480,272H72.408c0.84-16.816,4.248-32.928,9.904-48h34.456l2.256-4.224
		C141.368,177.968,184.656,152,232,152h8v-31.632c36.528,1.824,71.328,15.896,98.688,40.392l10.672-11.92
		C317.064,119.92,275.384,104,232,104c-18.328,0-36.008,2.824-52.64,8.048L119.312,52L120,51.312c5.16-5.152,8-12.016,8-19.312
		s-2.84-14.16-8-19.312L115.312,8C105-2.312,87-2.312,76.688,8L8,76.688C2.84,81.84,0,88.704,0,96s2.84,14.16,8,19.312L12.688,120
		c5.152,5.16,12.016,8,19.312,8s14.16-2.84,19.312-8L52,119.312l46.36,46.36C73.608,194.56,58.024,231.504,56.2,272H16
		c-8.824,0-16,7.176-16,16v32c0,8.824,7.176,16,16,16h48v-16H16v-32h464v32H112v16h368c8.824,0,16-7.176,16-16v-32
		C496,279.176,488.824,272,480,272z M107.264,208H89.312c25.264-49.856,75.792-84.664,134.688-87.592v15.816
		C175.504,138.896,131.664,165.776,107.264,208z M24,108.688L19.312,104C17.176,101.856,16,99.024,16,96s1.176-5.856,3.312-8
		L88,19.312C90.144,17.176,92.976,16,96,16s5.856,1.176,8,3.312L108.688,24c2.136,2.144,3.312,4.976,3.312,8s-1.176,5.856-3.312,8
		L40,108.688C35.72,112.952,28.28,112.952,24,108.688z M108,63.312l54.856,54.856c-20.04,8.592-38.152,20.816-53.552,35.824
		L63.312,108L108,63.312z"/>
	<path style="fill:#3F3A34;" d="M360,232c0,13.232,10.768,24,24,24s24-10.768,24-24s-10.768-24-24-24S360,218.768,360,232z M392,232
		c0,4.416-3.584,8-8,8s-8-3.584-8-8s3.584-8,8-8S392,227.584,392,232z"/>
	<path style="fill:#3F3A34;" d="M360,140.616V176h-32v80h16v-64h80v64h16v-80h-32v-16.232c1.688,0.104,3.376,0.224,5.056,0.224
		c30.072,0,58.608-16.584,73.936-44.112l3.776-6.776L343.376,20.896l-4.016,7.216C318.224,66.064,327.248,113.624,360,140.616z
		 M376,176v-72h4.688L392,115.312V176H376z M349.72,43.336l119.16,71.32c-14.064,19.856-37.208,30.824-60.872,28.984v-34.96
		L387.312,88H360v30.096C343.368,97.456,339.112,68.584,349.72,43.336z"/>
	<path style="fill:#3F3A34;" d="M132.664,228.296l14.184,7.408c2.712-5.192,5.912-10.168,9.52-14.768l-12.592-9.872
		C139.568,216.44,135.832,222.232,132.664,228.296z"/>
	<path style="fill:#3F3A34;" d="M232,184v-16c-29.024,0-56.56,11.104-77.536,31.256l11.08,11.528
		C183.52,193.512,207.128,184,232,184z"/>
	<path style="fill:#3F3A34;" d="M64,464h96V352H64V464z M80,432h24v16H80V432z M104,416H80v-16h24V416z M120,400h24v16h-24V400z
		 M120,448v-16h24v16H120z M144,384h-24v-16h24V384z M104,368v16H80v-16H104z"/>
	<path style="fill:#3F3A34;" d="M176,352v112h96V352H176z M256,384h-24v-16h24V384z M232,400h24v16h-24V400z M216,416h-24v-16h24
		V416z M216,368v16h-24v-16H216z M192,432h24v16h-24V432z M232,448v-16h24v16H232z"/>
</g>
<g>
</g>
<g>
</g>
<g>
</g>
<g>
</g>
<g>
</g>
<g>
</g>
<g>
</g>
<g>
</g>
<g>
</g>
<g>
</g>
<g>
</g>
<g>
</g>
<g>
</g>
<g>
</g>
<g>
</g>
</svg>
