<?xml version="1.0" encoding="iso-8859-1"?>
<!-- Generator: Adobe Illustrator 19.0.0, SVG Export Plug-In . SVG Version: 6.00 Build 0)  -->
<svg version="1.1" id="Capa_1" xmlns="http://www.w3.org/2000/svg" xmlns:xlink="http://www.w3.org/1999/xlink" x="0px" y="0px"
	 viewBox="0 0 496.152 496.152" style="enable-background:new 0 0 496.152 496.152;" xml:space="preserve">
<g>
	<polygon style="fill:#E56565;" points="208.152,291.388 178.496,261.732 189.808,250.42 208.152,268.764 224.152,252.764 
		224.152,176.076 240.152,176.076 240.152,259.388 	"/>
	<polygon style="fill:#E56565;" points="98.496,181.732 68.84,152.076 100.84,120.076 184.152,120.076 184.152,136.076 
		107.464,136.076 91.464,152.076 109.808,170.42 	"/>
</g>
<polygon style="fill:#FFCB57;" points="312.152,48.076 288.152,48.076 272.152,64.076 248.152,64.076 120.152,192.076 
	168.152,240.076 296.152,112.076 296.152,88.076 312.152,72.076 "/>
<g>
	<path style="fill:#3F3A34;" d="M248.152,0.076c-136.744,0-248,111.256-248,248c0,40.312,9.896,80.328,28.608,115.744l14.152-7.488
		c-17.504-33.104-26.76-70.544-26.76-108.256c0-127.928,104.072-232,232-232s232,104.072,232,232
		c0,79.632-40.344,150.008-101.648,191.808c-9.168-19.12-28.528-31.808-50.352-31.808c-30.88,0-56,25.128-56,56
		c0,4.952,0.72,9.784,2,14.504c-8.536,0.96-17.208,1.496-26,1.496c-76.912,0-148.68-38.024-191.992-101.72l-13.232,9
		c46.288,68.08,123.008,108.72,205.224,108.72c136.744,0,248-111.248,248-248C496.152,111.332,384.896,0.076,248.152,0.076z
		 M288.152,464.076c0-22.056,17.944-40,40-40c16.208,0,30.536,9.792,36.712,24.376c-22.752,13.304-47.952,22.832-74.752,27.752
		C288.848,472.276,288.152,468.22,288.152,464.076z"/>
	<path style="fill:#3F3A34;" d="M168.152,251.388l136-136v-24l16-16V40.076H284.84l-16,16h-24l-136,136L168.152,251.388z
		 M131.464,192.076l84.688-84.688l36.688,36.688l-84.688,84.688L131.464,192.076z M291.464,56.076h12.688v12.688l-8,8
		l-12.688-12.688L291.464,56.076z M251.464,72.076h17.376l19.312,19.312v17.376l-24,24l-36.688-36.688L251.464,72.076z"/>
	<path style="fill:#3F3A34;" d="M456.152,216.076c0-26.472-21.528-48-48-48s-48,21.528-48,48s21.528,48,48,48
		S456.152,242.548,456.152,216.076z M376.152,216.076c0-17.648,14.352-32,32-32s32,14.352,32,32s-14.352,32-32,32
		S376.152,233.724,376.152,216.076z"/>
	<path style="fill:#3F3A34;" d="M112.152,344.076c0,13.232,10.768,24,24,24s24-10.768,24-24s-10.768-24-24-24
		S112.152,330.844,112.152,344.076z M144.152,344.076c0,4.416-3.592,8-8,8s-8-3.584-8-8s3.592-8,8-8S144.152,339.66,144.152,344.076
		z"/>
	<path style="fill:#3F3A34;" d="M312.152,256.076c0-13.232-10.768-24-24-24s-24,10.768-24,24c0,13.232,10.768,24,24,24
		S312.152,269.308,312.152,256.076z M288.152,264.076c-4.408,0-8-3.584-8-8c0-4.408,3.592-8,8-8s8,3.592,8,8
		C296.152,260.492,292.56,264.076,288.152,264.076z"/>
	<rect x="200.152" y="352.076" style="fill:#3F3A34;" width="16" height="16"/>
	<rect x="360.152" y="320.076" style="fill:#3F3A34;" width="16" height="16"/>
	<rect x="232.152" y="440.076" style="fill:#3F3A34;" width="16" height="16"/>
	<rect x="344.152" y="112.076" style="fill:#3F3A34;" width="16" height="16"/>
	<rect x="288.152" y="312.076" style="fill:#3F3A34;" width="16" height="16"/>
	<rect x="144.152" y="56.076" style="fill:#3F3A34;" width="16" height="16"/>
</g>
<path style="fill:#E56565;" d="M50.288,496.02c-15.736,0-28.184-4.376-36.952-13.136C-29.128,440.42,36.168,323.7,119.704,226.844
	l12.12,10.456C41.68,341.812-4.4,442.532,24.648,471.58c13.16,13.152,42.336,11.04,82.176-5.928l6.264,14.72
	C88.592,490.804,67.48,496.02,50.288,496.02z"/>
<g>
</g>
<g>
</g>
<g>
</g>
<g>
</g>
<g>
</g>
<g>
</g>
<g>
</g>
<g>
</g>
<g>
</g>
<g>
</g>
<g>
</g>
<g>
</g>
<g>
</g>
<g>
</g>
<g>
</g>
</svg>
