<svg xmlns="http://www.w3.org/2000/svg" viewBox="0 0 172 171"><defs><style>.cls-1{fill:#fff;}.cls-2{fill:#fff100;}.cls-3{fill:#00adee;}.cls-4{fill:#eb008b;}.cls-5{fill:#25408e;}.cls-6{fill:#3fac49;}.cls-7{fill:#231f20;}</style></defs><title>Middel 1</title><g id="Laag_2" data-name="Laag 2"><g id="Laag_1-2" data-name="Laag 1"><path class="cls-1" d="M100.94,85.47a14.4,14.4,0,1,1-14.4-14.4,14.4,14.4,0,0,1,14.4,14.4m9.6,0a24,24,0,1,0-24,24,24,24,0,0,0,24-24"/><path class="cls-1" d="M86.54,91.51a6,6,0,1,0-6-6,6,6,0,0,0,6,6"/><polyline class="cls-2" points="41 0 41 131 172 131 172 0"/><rect class="cls-3" x="20" y="20" width="131" height="131"/><rect class="cls-4" y="40" width="131" height="131"/><rect class="cls-5" x="20" y="40" width="111" height="111"/><rect class="cls-6" x="41" y="20" width="111" height="111"/><rect class="cls-7" x="40" y="40" width="91" height="91"/><path class="cls-1" d="M100.94,85.47a14.4,14.4,0,1,1-14.4-14.4,14.4,14.4,0,0,1,14.4,14.4m9.6,0a24,24,0,1,0-24,24,24,24,0,0,0,24-24"/><path class="cls-1" d="M86.54,91.51a6,6,0,1,0-6-6,6,6,0,0,0,6,6"/></g></g></svg>